PathFileType	4	(X/Y/Z)	Walk1.trc
DataRate	CameraRate	NumFrames	NumMarkers	Units	OrigDataRate	OrigDataStartFrame	OrigNumFrames
200.000000	200.000000	9	59	mm	200.000000	304	610
Frame#	Times		LFHD		RFHD		CLAV		STRN		LASI		RASI		RACR1		RUA1		RElbow		RElbowM		RFA1		RWRR		RWRU		RCAR		LACR1		LUA1		LElbow		LFA1		LWRR		LWRU		LCAR		RTH2		RTB1		RTB2		LTH1		LTH3		LTH2		LMFC		LTB1		LTB2		LTB4		LMT1		LToe		LLFC		LMT5		RTH3		LTB3		RTB4		RTB3		RMFC		LTH4		RTH4		RToe		RTH1		RMMAL		RLFC		RBHD		RMT1		RCAL		RBack		LMMAL		LLMAL		RPSI		C7		T10		LPSI		LCAL		LBHD		LElbowM
			X1	Y1	Z1	X2	Y2	Z2	X3	Y3	Z3	X4	Y4	Z4	X5	Y5	Z5	X6	Y6	Z6	X7	Y7	Z7	X8	Y8	Z8	X9	Y9	Z9	X10	Y10	Z10	X11	Y11	Z11	X12	Y12	Z12	X13	Y13	Z13	X14	Y14	Z14	X15	Y15	Z15	X16	Y16	Z16	X17	Y17	Z17	X18	Y18	Z18	X19	Y19	Z19	X20	Y20	Z20	X21	Y21	Z21	X22	Y22	Z22	X23	Y23	Z23	X24	Y24	Z24	X25	Y25	Z25	X26	Y26	Z26	X27	Y27	Z27	X28	Y28	Z28	X29	Y29	Z29	X30	Y30	Z30	X31	Y31	Z31	X32	Y32	Z32	X33	Y33	Z33	X34	Y34	Z34	X35	Y35	Z35	X36	Y36	Z36	X37	Y37	Z37	X38	Y38	Z38	X39	Y39	Z39	X40	Y40	Z40	X41	Y41	Z41	X42	Y42	Z42	X43	Y43	Z43	X44	Y44	Z44	X45	Y45	Z45	X46	Y46	Z46	X47	Y47	Z47	X48	Y48	Z48	X49	Y49	Z49	X50	Y50	Z50	X51	Y51	Z51	X52	Y52	Z52	X53	Y53	Z53	X54	Y54	Z54	X55	Y55	Z55	X56	Y56	Z56	X57	Y57	Z57	X58	Y58	Z58	X59	Y59	Z59

304	1.52	-212.54	1666.3	35.526	-208.47	1654.1	-63.346	-192.75	1397.7	14.285	-125.09	1239.1	23.761	-232.57	978.29	-148.8	-250.77	979.51	201.62	-314.92	1485.8	177.87	-327.34	1323.5	303.97	-298.79	1182.2	362.41	-340.92	1099.1	270.81	-233.46	1044.4	376.42	-185.21	936.12	305.13	-192.04	938.02	386.7	-136.19	869.12	353.4	-298.82	1459.6	-170.23	-351.18	1294.2	-257.4	-394.25	1136.4	-305.19	-399.03	996.68	-319.72	-369.65	865.38	-262.84	-419.74	859.54	-318.85	-380.33	778.69	-299.01	-297.19	679.99	231.66	-414.28	361.05	156.76	-504.55	331.2	201.51	-260.22	754.74	-172.26	-212.42	593.46	-140.25	-181.96	693.24	-142.38	-187.92	512.79	21.82	-134.62	395.09	-67.131	-169.73	301.5	-97.315	-138.9	313.61	-44.408	-82.011	36.942	-8.8071	-35.822	34.994	-48.884	-212.7	509	-134.24	-153.13	26.43	-82.321	-347.49	588.48	241.32	-151.21	229.22	-24.222	-489.35	318.76	143.81	-563.25	276.34	130.09	-360.61	479.03	78.967	-237.73	674.52	-156.05	-353.77	674.13	243.87	-664.89	53.926	116.07	-361.81	760.64	246.07	-693.17	233.63	64.307	-378.98	487.56	233.54	-349.33	1560.6	-70.551	-687.49	90.798	77.669	-774.1	289.31	96.717	-455.08	1363.4	123.37	-213.1	85.296	69.029	-245.09	73.193	-14.11	-503.29	1023.1	44.502	-388.2	1476.1	3.8728	-453.55	1161.5	12.297	-484.94	1029.8	-39.803	-290.68	46.848	47.456	-341.63	1583.7	75.296	-470.37	1097.2	-213.9
305	1.525	-205.74	1667.4	35.227	-201.62	1655.3	-63.631	-186.35	1398.8	13.988	-118.88	1240.1	23.187	-226.79	979.38	-149.43	-244.32	981.04	201.44	-308.47	1486.9	177.6	-321.72	1324.6	303.47	-293.58	1182.9	361.75	-335.97	1100.1	270.02	-229.1	1044.6	375.84	-181.47	935.99	304.66	-188.42	937.97	386.22	-133	868.67	353.01	-292.18	1461.1	-170.51	-343.51	1295.3	-257.9	-385.77	1137.4	-305.83	-389.59	997.72	-320.49	-359.08	866.67	-263.76	-409.22	860.42	-319.67	-368.89	779.99	-300.04	-286.01	682.13	231.97	-400.21	362.8	157.6	-490.55	333.15	202.37	-255.89	755.26	-172.44	-209.5	593.59	-140.34	-178.18	693.07	-142.46	-185.86	512.64	21.834	-133.09	394.69	-67.151	-168.59	301.23	-97.327	-137.73	313.24	-44.404	-81.974	36.947	-8.8938	-35.709	34.634	-49.089	-210.49	509.05	-134.27	-153.17	26.39	-82.385	-334.99	589.92	241.98	-150.42	228.91	-24.206	-475.37	320.73	144.62	-549.39	278.54	130.89	-347.07	480.47	79.802	-234.14	674.85	-156.16	-342.48	675.48	244.32	-650.68	56.917	118.41	-351.74	761.87	246.27	-679.45	236.03	65.174	-365.08	489.05	234.39	-342.65	1562	-70.927	-673.27	93.28	79.92	-760.64	291.7	97.283	-448.82	1364.7	122.75	-212.91	85.252	69.086	-244.95	73.264	-14.06	-496.88	1024.1	44.459	-381.7	1477.4	3.5522	-447.23	1162.8	11.905	-478.9	1031.2	-39.827	-290.61	46.953	47.536	-334.99	1585.1	74.99	-461.89	1097.7	-214.74
306	1.53	-198.95	1668.5	34.951	-194.8	1656.4	-63.891	-179.99	1399.8	13.71	-112.7	1241.1	22.636	-221.04	980.46	-150.06	-237.91	982.57	201.37	-302.07	1488	177.36	-316.1	1325.5	302.99	-288.4	1183.6	361.09	-331.05	1101	269.24	-224.78	1044.8	375.28	-177.76	935.84	304.23	-184.86	937.9	385.78	-129.86	868.21	352.69	-285.63	1462.5	-170.77	-335.92	1296.5	-258.39	-377.32	1138.3	-306.48	-380.14	998.73	-321.27	-348.49	867.95	-264.68	-398.66	861.28	-320.5	-357.43	781.27	-301.04	-274.89	684.38	232.27	-386.03	364.58	158.45	-476.41	335.05	203.22	-251.61	755.76	-172.62	-206.65	593.71	-140.43	-174.45	692.89	-142.55	-183.83	512.49	21.856	-131.6	394.3	-67.166	-167.48	300.98	-97.335	-136.6	312.89	-44.396	-81.937	36.949	-8.9804	-35.592	34.269	-49.306	-208.33	509.11	-134.3	-153.22	26.355	-82.449	-322.54	591.49	242.59	-149.65	228.62	-24.188	-461.22	322.62	145.44	-535.29	280.55	131.71	-333.56	482.02	80.592	-230.58	675.17	-156.27	-331.25	676.94	244.74	-635.8	59.687	120.72	-341.73	763.19	246.46	-665.4	238.05	66.013	-351.22	490.66	235.19	-336	1563.4	-71.271	-658.49	95.426	82.162	-746.97	293.56	97.798	-442.59	1366	122.17	-212.71	85.214	69.141	-244.81	73.339	-14.01	-490.48	1025.2	44.413	-375.24	1478.6	3.2675	-440.93	1164.1	11.527	-472.89	1032.6	-39.838	-290.54	47.067	47.617	-328.37	1586.5	74.702	-453.41	1098.1	-215.57
307	1.535	-192.18	1669.6	34.699	-187.99	1657.5	-64.127	-173.66	1400.9	13.45	-106.54	1242.1	22.111	-215.31	981.54	-150.71	-231.54	984.08	201.41	-295.71	1489.1	177.13	-310.46	1326.5	302.52	-283.25	1184.3	360.45	-326.15	1101.9	268.46	-220.51	1045	374.75	-174.09	935.65	303.84	-181.34	937.81	385.37	-126.75	867.73	352.42	-279.15	1464	-171.02	-328.41	1297.6	-258.86	-368.89	1139.3	-307.13	-370.67	999.73	-322.04	-337.87	869.22	-265.58	-388.05	862.13	-321.33	-345.95	782.54	-302.01	-263.83	686.73	232.55	-371.76	366.38	159.3	-462.17	336.88	204.05	-247.37	756.24	-172.8	-203.84	593.82	-140.51	-170.76	692.7	-142.64	-181.81	512.34	21.883	-130.15	393.93	-67.175	-166.39	300.74	-97.337	-135.49	312.54	-44.383	-81.899	36.947	-9.0665	-35.466	33.894	-49.534	-206.22	509.16	-134.31	-153.27	26.324	-82.512	-310.16	593.18	243.16	-148.89	228.34	-24.168	-446.9	324.41	146.28	-520.96	282.35	132.56	-320.07	483.66	81.34	-227.07	675.48	-156.38	-320.07	678.5	245.12	-620.28	62.202	123	-331.77	764.58	246.62	-651.05	239.66	66.832	-337.42	492.37	235.93	-329.38	1564.8	-71.583	-643.16	97.222	84.388	-733.09	294.88	98.278	-436.38	1367.2	121.61	-212.51	85.185	69.194	-244.68	73.419	-13.96	-484.1	1026.2	44.366	-368.82	1479.9	3.0156	-434.65	1165.4	11.159	-466.89	1033.9	-39.84	-290.46	47.19	47.698	-321.76	1587.9	74.433	-444.92	1098.4	-216.4
308	1.54	-185.42	1670.6	34.473	-181.21	1658.6	-64.336	-167.36	1402	13.207	-100.39	1243	21.614	-209.62	982.61	-151.38	-225.22	985.58	201.57	-289.4	1490.1	176.93	-304.81	1327.4	302.06	-278.11	1184.9	359.8	-321.27	1102.8	267.7	-216.29	1045.2	374.25	-170.45	935.44	303.49	-177.87	937.7	385.01	-123.69	867.25	352.21	-272.75	1465.3	-171.25	-320.99	1298.8	-259.32	-360.5	1140.2	-307.79	-361.18	1000.7	-322.82	-327.23	870.49	-266.47	-377.39	862.95	-322.16	-334.45	783.79	-302.94	-252.84	689.16	232.83	-357.41	368.19	160.14	-447.81	338.63	204.87	-243.18	756.7	-172.97	-201.09	593.92	-140.59	-167.13	692.5	-142.75	-179.81	512.2	21.915	-128.73	393.57	-67.177	-165.33	300.5	-97.335	-134.41	312.21	-44.366	-81.862	36.941	-9.1516	-35.329	33.506	-49.777	-204.16	509.22	-134.32	-153.31	26.299	-82.575	-297.84	594.98	243.68	-148.16	228.07	-24.145	-432.44	326.1	147.13	-506.42	283.92	133.42	-306.6	485.38	82.046	-223.59	675.78	-156.5	-308.96	680.15	245.47	-604.15	64.439	125.25	-321.87	766.05	246.76	-636.4	240.85	67.639	-323.69	494.17	236.63	-322.8	1566.1	-71.866	-627.3	98.661	86.596	-719.01	295.65	98.74	-430.2	1368.4	121.09	-212.31	85.163	69.245	-244.54	73.505	-13.91	-477.72	1027.3	44.318	-362.44	1481.2	2.7933	-428.38	1166.7	10.798	-460.91	1035.2	-39.836	-290.39	47.324	47.779	-315.16	1589.2	74.183	-436.42	1098.7	-217.23
309	1.545	-178.68	1671.7	34.274	-174.46	1659.7	-64.519	-161.1	1403	12.982	-94.246	1244	21.146	-203.94	983.67	-152.06	-218.95	987.04	201.83	-283.13	1491.1	176.75	-299.15	1328.2	301.62	-273	1185.5	359.16	-316.41	1103.7	266.94	-212.1	1045.3	373.77	-166.85	935.21	303.17	-174.44	937.57	384.68	-120.67	866.75	352.05	-266.42	1466.7	-171.48	-313.67	1299.9	-259.77	-352.13	1141.1	-308.44	-351.68	1001.6	-323.59	-316.57	871.74	-267.34	-366.68	863.76	-323	-322.93	785.03	-303.84	-241.92	691.67	233.09	-342.99	370	160.99	-433.36	340.29	205.68	-239.02	757.14	-173.14	-198.39	594.01	-140.66	-163.53	692.28	-142.87	-177.83	512.06	21.949	-127.34	393.22	-67.174	-164.29	300.28	-97.328	-133.35	311.89	-44.345	-81.824	36.931	-9.2355	-35.178	33.103	-50.034	-202.14	509.28	-134.32	-153.36	26.278	-82.636	-285.6	596.88	244.15	-147.43	227.81	-24.117	-417.85	327.68	147.98	-491.68	285.26	134.31	-293.19	487.17	82.706	-220.15	676.08	-156.62	-297.92	681.88	245.79	-587.42	66.38	127.46	-312.04	767.58	246.88	-621.48	241.62	68.441	-310.02	496.05	237.27	-316.25	1567.5	-72.12	-610.92	99.74	88.781	-704.75	295.86	99.198	-424.03	1369.6	120.6	-212.11	85.151	69.292	-244.4	73.598	-13.861	-471.36	1028.3	44.273	-356.1	1482.4	2.5974	-422.14	1167.9	10.443	-454.94	1036.6	-39.831	-290.31	47.468	47.859	-308.59	1590.5	73.953	-427.91	1099	-218.04
310	1.55	-171.96	1672.7	34.104	-167.74	1660.7	-64.675	-154.86	1404	12.775	-88.111	1245	20.706	-198.29	984.7	-152.77	-212.71	988.47	202.19	-276.9	1492	176.58	-293.48	1329.1	301.19	-267.91	1186.1	358.53	-311.56	1104.5	266.2	-207.95	1045.4	373.32	-163.29	934.96	302.9	-171.05	937.43	384.39	-117.69	866.25	351.94	-260.16	1468	-171.69	-306.44	1301	-260.21	-343.8	1142	-309.1	-342.17	1002.6	-324.36	-305.9	872.98	-268.19	-355.93	864.56	-323.84	-311.4	786.25	-304.71	-231.07	694.24	233.34	-328.51	371.81	161.82	-418.82	341.84	206.47	-234.91	757.56	-173.31	-195.73	594.1	-140.73	-159.98	692.04	-143.01	-175.87	511.92	21.988	-125.97	392.88	-67.165	-163.26	300.07	-97.317	-132.31	311.59	-44.32	-81.784	36.919	-9.3179	-35.011	32.681	-50.307	-200.17	509.34	-134.31	-153.4	26.263	-82.695	-273.42	598.86	244.57	-146.71	227.56	-24.086	-403.14	329.14	148.84	-476.75	286.37	135.2	-279.83	489.03	83.318	-216.74	676.36	-156.75	-286.95	683.67	246.08	-570.13	68.019	129.65	-302.28	769.17	246.98	-606.29	241.97	69.243	-296.45	497.99	237.85	-309.73	1568.9	-72.347	-594.04	100.46	90.943	-690.3	295.5	99.664	-417.89	1370.7	120.15	-211.91	85.148	69.338	-244.25	73.697	-13.812	-465	1029.3	44.231	-349.78	1483.6	2.4248	-415.9	1169.1	10.092	-448.98	1037.9	-39.828	-290.24	47.624	47.938	-302.04	1591.8	73.744	-419.39	1099.1	-218.84
311	1.555	-165.27	1673.6	33.961	-161.05	1661.7	-64.804	-148.65	1405.1	12.585	-81.98	1245.9	20.295	-192.66	985.72	-153.49	-206.51	989.84	202.65	-270.71	1493	176.42	-287.78	1329.8	300.78	-262.83	1186.6	357.9	-306.73	1105.3	265.48	-203.84	1045.5	372.89	-159.77	934.68	302.66	-167.7	937.28	384.14	-114.75	865.73	351.89	-253.96	1469.2	-171.9	-299.3	1302	-260.65	-335.51	1142.8	-309.76	-332.65	1003.5	-325.12	-295.2	874.22	-269.02	-345.14	865.34	-324.68	-299.84	787.46	-305.55	-220.3	696.86	233.57	-313.99	373.6	162.62	-404.2	343.28	207.24	-230.83	757.97	-173.48	-193.12	594.17	-140.79	-156.47	691.8	-143.16	-173.92	511.79	22.03	-124.63	392.55	-67.151	-162.25	299.86	-97.303	-131.28	311.29	-44.293	-81.744	36.903	-9.3987	-34.827	32.24	-50.597	-198.23	509.4	-134.29	-153.44	26.252	-82.752	-261.32	600.92	244.94	-146.01	227.32	-24.051	-388.33	330.48	149.69	-461.66	287.24	136.11	-266.53	490.94	83.876	-213.37	676.63	-156.87	-276.06	685.52	246.33	-552.29	69.355	131.8	-292.58	770.8	247.06	-590.85	241.89	70.051	-282.96	499.98	238.39	-303.24	1570.2	-72.549	-576.68	100.83	93.081	-675.67	294.59	100.15	-411.77	1371.8	119.72	-211.71	85.154	69.382	-244.1	73.805	-13.764	-458.66	1030.3	44.199	-343.5	1484.8	2.2722	-409.69	1170.3	9.747	-443.03	1039.1	-39.828	-290.16	47.79	48.015	-295.51	1593.1	73.556	-410.85	1099.2	-219.62
312	1.56	-158.61	1674.6	33.847	-154.39	1662.7	-64.905	-142.47	1406	12.412	-75.852	1246.9	19.91	-187.05	986.71	-154.23	-200.35	991.15	203.19	-264.56	1493.9	176.28	-282.08	1330.6	300.38	-257.76	1187.1	357.27	-301.92	1106.1	264.78	-199.76	1045.6	372.49	-156.29	934.39	302.46	-164.38	937.12	383.92	-111.85	865.21	351.87	-247.83	1470.5	-172.1	-292.26	1303	-261.07	-327.25	1143.6	-310.43	-323.12	1004.3	-325.88	-284.49	875.44	-269.83	-334.3	866.12	-325.51	-288.26	788.66	-306.36	-209.61	699.51	233.78	-299.44	375.38	163.41	-389.5	344.59	207.99	-226.78	758.35	-173.64	-190.54	594.24	-140.84	-152.99	691.54	-143.33	-171.97	511.66	22.075	-123.3	392.24	-67.133	-161.25	299.67	-97.286	-130.26	311	-44.264	-81.703	36.885	-9.4779	-34.626	31.779	-50.902	-196.33	509.46	-134.27	-153.48	26.244	-82.806	-249.31	603.03	245.27	-145.31	227.08	-24.014	-373.43	331.69	150.52	-446.41	287.87	137.02	-253.32	492.89	84.378	-210.03	676.89	-157	-265.24	687.41	246.56	-533.93	70.395	133.93	-282.95	772.46	247.13	-575.17	241.4	70.867	-269.56	502.02	238.87	-296.79	1571.5	-72.726	-558.85	100.86	95.192	-660.86	293.11	100.67	-405.67	1372.9	119.32	-211.5	85.168	69.424	-243.95	73.92	-13.717	-452.32	1031.3	44.178	-337.25	1485.9	2.1364	-403.48	1171.4	9.4078	-437.08	1040.4	-39.833	-290.07	47.967	48.09	-289.02	1594.3	73.388	-402.3	1099.3	-220.39
